v  0.463526  1.426585  0.000000
v  0.881678  1.213526  0.000000
v  0.713292  1.213526  0.544907
v  0.375000  1.426585  0.286474
v  0.272453  1.213526  0.881678
v  0.143237  1.426585  0.463526
v -0.272453  1.213526  0.881678
v -0.143237  1.426585  0.463526
v -0.713292  1.213526  0.544907
v -0.375000  1.426585  0.286474
v -0.881678  1.213526  0.000000
v -0.463526  1.426585  0.000000
v -0.713292  1.213526 -0.544907
v -0.375000  1.426585 -0.286474
v -0.272453  1.213526 -0.881678
v -0.143237  1.426585 -0.463526
v  0.272453  1.213526 -0.881678
v  0.143237  1.426585 -0.463526
v  0.713292  1.213526 -0.544907
v  0.375000  1.426585 -0.286474
v  1.213526  0.881678  0.000000
v  0.981763  0.881678  0.750000
v  0.375000  0.881678  1.213526
v -0.375000  0.881678  1.213526
v -0.981763  0.881678  0.750000
v -1.213526  0.881678  0.000000
v -0.981763  0.881678 -0.750000
v -0.375000  0.881678 -1.213526
v  0.375000  0.881678 -1.213526
v  0.981763  0.881678 -0.750000
v  1.426585  0.463526  0.000000
v  1.154131  0.463526  0.881678
v  0.440839  0.463526  1.426585
v -0.440839  0.463526  1.426585
v -1.154131  0.463526  0.881678
v -1.426585  0.463526  0.000000
v -1.154131  0.463526 -0.881678
v -0.440839  0.463526 -1.426585
v  0.440839  0.463526 -1.426585
v  1.154131  0.463526 -0.881678
v  1.500000  0.000000  0.000000
v  1.213526  0.000000  0.927051
v  0.463526  0.000000  1.500000
v -0.463526  0.000000  1.500000
v -1.213526  0.000000  0.927051
v -1.500000  0.000000  0.000000
v -1.213526  0.000000 -0.927051
v -0.463526  0.000000 -1.500000
v  0.463526  0.000000 -1.500000
v  1.213526  0.000000 -0.927051
v  1.426585 -0.463526  0.000000
v  1.154131 -0.463526  0.881678
v  0.440839 -0.463526  1.426585
v -0.440839 -0.463526  1.426585
v -1.154131 -0.463526  0.881678
v -1.426585 -0.463526  0.000000
v -1.154131 -0.463526 -0.881678
v -0.440839 -0.463526 -1.426585
v  0.440839 -0.463526 -1.426585
v  1.154131 -0.463526 -0.881678
v  1.213526 -0.881678  0.000000
v  0.981763 -0.881678  0.750000
v  0.375000 -0.881678  1.213526
v -0.375000 -0.881678  1.213526
v -0.981763 -0.881678  0.750000
v -1.213526 -0.881678  0.000000
v -0.981763 -0.881678 -0.750000
v -0.375000 -0.881678 -1.213526
v  0.375000 -0.881678 -1.213526
v  0.981763 -0.881678 -0.750000
v  0.881678 -1.213526  0.000000
v  0.713292 -1.213526  0.544907
v  0.272453 -1.213526  0.881678
v -0.272453 -1.213526  0.881678
v -0.713292 -1.213526  0.544907
v -0.881678 -1.213526  0.000000
v -0.713292 -1.213526 -0.544907
v -0.272453 -1.213526 -0.881678
v  0.272453 -1.213526 -0.881678
v  0.713292 -1.213526 -0.544907
v  0.463526 -1.426585  0.000000
v  0.375000 -1.426585  0.286474
v  0.143237 -1.426585  0.463526
v -0.143237 -1.426585  0.463526
v -0.375000 -1.426585  0.286474
v -0.463526 -1.426585  0.000000
v -0.375000 -1.426585 -0.286474
v -0.143237 -1.426585 -0.463526
v  0.143237 -1.426585 -0.463526
v  0.375000 -1.426585 -0.286474
v  0.000000  1.500000  0.000000
v  0.000000 -1.500000  0.000000
vn 0.0000011009173137983554 0.0000026690686445302644 4.235164736271502e-22
vn 0.0000033713627138151068 0.000004318643785156581 4.235164736271502e-22
vn 0.0000027274897296784633 0.00000431864378515658 0.0000018846490512246906
vn 8.906608162644865e-7 0.0000026690686445302644 6.154314878148984e-7
vn 0.0000010418083727709097 0.0000043186437851565795 0.0000030494262217467876
vn 3.4020215936530883e-7 0.000002669068644530263 9.95789065031422e-7
vn -0.0000010418083727709095 0.0000043186437851565795 0.000003049426221746787
vn -3.4020215936530857e-7 0.000002669068644530264 9.957890650314218e-7
vn -0.0000027274897296784633 0.0000043186437851565795 0.0000018846490512246883
vn -8.906608162644867e-7 0.0000026690686445302644 6.154314878148974e-7
vn -0.0000033713627138151068 0.0000043186437851565795 -2.117582368135751e-22
vn -0.0000011009173137983554 0.000002669068644530263 0
vn -0.000002727489729678464 0.0000043186437851565795 -0.0000018846490512246872
vn -8.90660816264487e-7 0.0000026690686445302644 -6.154314878148973e-7
vn -0.000001041808372770911 0.000004318643785156579 -0.000003049426221746787
vn -3.402021593653094e-7 0.0000026690686445302657 -9.957890650314223e-7
vn 0.000001041808372770911 0.0000043186437851565795 -0.0000030494262217467884
vn 3.402021593653094e-7 0.0000026690686445302652 -9.957890650314218e-7
vn 0.000002727489729678464 0.000004318643785156581 -0.0000018846490512246898
vn 8.90660816264487e-7 0.000002669068644530265 -6.154314878148974e-7
vn 0.000006177787567437522 0.0000043186437851565846 -2.117582368135751e-22
vn 0.000004997935129695221 0.000004318643785156581 0.000003453488237835846
vn 0.0000019090413459764602 0.0000043186437851565795 0.000005587861348566374
vn -0.0000019090413459764602 0.000004318643785156576 0.000005587861348566373
vn -0.000004997935129695221 0.000004318643785156576 0.000003453488237835845
vn -0.000006177787567437522 0.00000431864378515658 8.470329472543003e-22
vn -0.000004997935129695221 0.00000431864378515658 -0.0000034534882378358437
vn -0.0000019090413459764602 0.000004318643785156577 -0.000005587861348566373
vn 0.0000019090413459764602 0.000004318643785156578 -0.000005587861348566376
vn 0.000004997935129695222 0.000004318643785156582 -0.000003453488237835847
vn 0.000008448232967454274 0.0000026690686445302636 -2.117582368135751e-22
vn 0.0000068347640431092 0.000002669068644530266 0.000004722705801245634
vn 0.000002610647559382064 0.0000026690686445302686 0.000007641498505281742
vn -0.0000026106475593820634 0.0000026690686445302686 0.000007641498505281739
vn -0.000006834764043109201 0.000002669068644530266 0.000004722705801245635
vn -0.000008448232967454272 0.0000026690686445302623 2.2234614865425384e-21
vn -0.0000068347640431092 0.0000026690686445302636 -0.000004722705801245634
vn -0.000002610647559382063 0.0000026690686445302665 -0.000007641498505281739
vn 0.000002610647559382062 0.000002669068644530269 -0.000007641498505281742
vn 0.0000068347640431092 0.000002669068644530267 -0.000004722705801245637
vn 0.000009315465940659817 5.293955920339377e-23 -1.0587911840678754e-22
vn 0.000007536370256514799 0 0.000005207503771349845
vn 0.000002878637286184891 0 0.000008425918098587313
vn -0.00000287863728618489 0 0.000008425918098587311
vn -0.000007536370256514799 0 0.000005207503771349846
vn -0.000009315465940659815 0 2.4352197233561135e-21
vn -0.000007536370256514799 0 -0.000005207503771349845
vn -0.000002878637286184891 0 -0.000008425918098587311
vn 0.0000028786372861848893 0 -0.000008425918098587314
vn 0.000007536370256514798 0 -0.0000052075037713498466
vn 0.000008448232967454272 -0.0000026690686445302636 -1.0587911840678754e-22
vn 0.000006834764043109199 -0.000002669068644530266 0.000004722705801245634
vn 0.0000026106475593820634 -0.0000026690686445302686 0.00000764149850528174
vn -0.000002610647559382063 -0.0000026690686445302686 0.000007641498505281737
vn -0.000006834764043109199 -0.000002669068644530266 0.0000047227058012456335
vn -0.000008448232967454272 -0.0000026690686445302623 2.4352197233561135e-21
vn -0.000006834764043109199 -0.0000026690686445302636 -0.0000047227058012456335
vn -0.000002610647559382063 -0.0000026690686445302665 -0.000007641498505281739
vn 0.000002610647559382062 -0.000002669068644530269 -0.000007641498505281742
vn 0.000006834764043109199 -0.000002669068644530267 -0.000004722705801245636
vn 0.000006177787567437524 -0.0000043186437851565846 -2.117582368135751e-22
vn 0.000004997935129695222 -0.00000431864378515658 0.000003453488237835846
vn 0.0000019090413459764606 -0.000004318643785156579 0.0000055878613485663765
vn -0.0000019090413459764602 -0.000004318643785156576 0.000005587861348566376
vn -0.000004997935129695222 -0.000004318643785156574 0.000003453488237835846
vn -0.000006177787567437523 -0.000004318643785156579 9.529120656610879e-22
vn -0.0000049979351296952225 -0.0000043186437851565795 -0.000003453488237835845
vn -0.0000019090413459764606 -0.000004318643785156577 -0.000005587861348566375
vn 0.00000190904134597646 -0.000004318643785156575 -0.000005587861348566377
vn 0.0000049979351296952225 -0.0000043186437851565795 -0.0000034534882378358475
vn 0.0000033713627138151127 -0.000004318643785156583 2.117582368135751e-22
vn 0.000002727489729678467 -0.000004318643785156579 0.0000018846490512246919
vn 0.000001041808372770911 -0.000004318643785156578 0.0000030494262217467922
vn -0.0000010418083727709107 -0.000004318643785156578 0.0000030494262217467922
vn -0.0000027274897296784675 -0.0000043186437851565795 0.0000018846490512246912
vn -0.000003371362713815112 -0.00000431864378515658 -6.352747104407253e-22
vn -0.000002727489729678468 -0.0000043186437851565795 -0.0000018846490512246915
vn -0.0000010418083727709124 -0.000004318643785156579 -0.000003049426221746792
vn 0.000001041808372770911 -0.000004318643785156578 -0.0000030494262217467926
vn 0.0000027274897296784684 -0.000004318643785156581 -0.000001884649051224692
vn 0.0000011009173137983566 -0.0000026690686445302665 4.235164736271502e-22
vn 8.906608162644867e-7 -0.0000026690686445302644 6.154314878148982e-7
vn 3.4020215936530846e-7 -0.0000026690686445302623 9.957890650314223e-7
vn -3.4020215936530836e-7 -0.000002669068644530263 9.957890650314218e-7
vn -8.906608162644868e-7 -0.0000026690686445302652 6.154314878148974e-7
vn -0.000001100917313798356 -0.0000026690686445302657 -4.235164736271502e-22
vn -8.90660816264487e-7 -0.0000026690686445302652 -6.154314878148982e-7
vn -3.402021593653094e-7 -0.0000026690686445302657 -9.957890650314223e-7
vn 3.402021593653088e-7 -0.000002669068644530266 -9.957890650314218e-7
vn 8.906608162644872e-7 -0.0000026690686445302665 -6.154314878148974e-7
vn -5.2939559203393774e-24 0.000001475424859373686 8.470329472543004e-23
vn 5.2939559203393774e-24 -0.0000014754248593736865 8.470329472543004e-23
f 4/4/4 3/3/3 2/2/2 1/1/1 
f 6/8/6 5/7/5 3/6/3 4/5/4 
f 8/12/8 7/11/7 5/10/5 6/9/6 
f 10/16/10 9/15/9 7/14/7 8/13/8 
f 12/20/12 11/19/11 9/18/9 10/17/10 
f 14/24/14 13/23/13 11/22/11 12/21/12 
f 16/28/16 15/27/15 13/26/13 14/25/14 
f 18/32/18 17/31/17 15/30/15 16/29/16 
f 20/36/20 19/35/19 17/34/17 18/33/18 
f 1/40/1 2/39/2 19/38/19 20/37/20 
f 3/44/3 22/43/22 21/42/21 2/41/2 
f 5/48/5 23/47/23 22/46/22 3/45/3 
f 7/52/7 24/51/24 23/50/23 5/49/5 
f 9/56/9 25/55/25 24/54/24 7/53/7 
f 11/60/11 26/59/26 25/58/25 9/57/9 
f 13/64/13 27/63/27 26/62/26 11/61/11 
f 15/68/15 28/67/28 27/66/27 13/65/13 
f 17/72/17 29/71/29 28/70/28 15/69/15 
f 19/76/19 30/75/30 29/74/29 17/73/17 
f 2/80/2 21/79/21 30/78/30 19/77/19 
f 22/84/22 32/83/32 31/82/31 21/81/21 
f 23/88/23 33/87/33 32/86/32 22/85/22 
f 24/92/24 34/91/34 33/90/33 23/89/23 
f 25/96/25 35/95/35 34/94/34 24/93/24 
f 26/100/26 36/99/36 35/98/35 25/97/25 
f 27/104/27 37/103/37 36/102/36 26/101/26 
f 28/108/28 38/107/38 37/106/37 27/105/27 
f 29/112/29 39/111/39 38/110/38 28/109/28 
f 30/116/30 40/115/40 39/114/39 29/113/29 
f 21/120/21 31/119/31 40/118/40 30/117/30 
f 32/124/32 42/123/42 41/122/41 31/121/31 
f 33/128/33 43/127/43 42/126/42 32/125/32 
f 34/132/34 44/131/44 43/130/43 33/129/33 
f 35/136/35 45/135/45 44/134/44 34/133/34 
f 36/140/36 46/139/46 45/138/45 35/137/35 
f 37/144/37 47/143/47 46/142/46 36/141/36 
f 38/148/38 48/147/48 47/146/47 37/145/37 
f 39/152/39 49/151/49 48/150/48 38/149/38 
f 40/156/40 50/155/50 49/154/49 39/153/39 
f 31/160/31 41/159/41 50/158/50 40/157/40 
f 42/164/42 52/163/52 51/162/51 41/161/41 
f 43/168/43 53/167/53 52/166/52 42/165/42 
f 44/172/44 54/171/54 53/170/53 43/169/43 
f 45/176/45 55/175/55 54/174/54 44/173/44 
f 46/180/46 56/179/56 55/178/55 45/177/45 
f 47/184/47 57/183/57 56/182/56 46/181/46 
f 48/188/48 58/187/58 57/186/57 47/185/47 
f 49/192/49 59/191/59 58/190/58 48/189/48 
f 50/196/50 60/195/60 59/194/59 49/193/49 
f 41/200/41 51/199/51 60/198/60 50/197/50 
f 52/204/52 62/203/62 61/202/61 51/201/51 
f 53/208/53 63/207/63 62/206/62 52/205/52 
f 54/212/54 64/211/64 63/210/63 53/209/53 
f 55/216/55 65/215/65 64/214/64 54/213/54 
f 56/220/56 66/219/66 65/218/65 55/217/55 
f 57/224/57 67/223/67 66/222/66 56/221/56 
f 58/228/58 68/227/68 67/226/67 57/225/57 
f 59/232/59 69/231/69 68/230/68 58/229/58 
f 60/236/60 70/235/70 69/234/69 59/233/59 
f 51/240/51 61/239/61 70/238/70 60/237/60 
f 62/244/62 72/243/72 71/242/71 61/241/61 
f 63/248/63 73/247/73 72/246/72 62/245/62 
f 64/252/64 74/251/74 73/250/73 63/249/63 
f 65/256/65 75/255/75 74/254/74 64/253/64 
f 66/260/66 76/259/76 75/258/75 65/257/65 
f 67/264/67 77/263/77 76/262/76 66/261/66 
f 68/268/68 78/267/78 77/266/77 67/265/67 
f 69/272/69 79/271/79 78/270/78 68/269/68 
f 70/276/70 80/275/80 79/274/79 69/273/69 
f 61/280/61 71/279/71 80/278/80 70/277/70 
f 72/284/72 82/283/82 81/282/81 71/281/71 
f 73/288/73 83/287/83 82/286/82 72/285/72 
f 74/292/74 84/291/84 83/290/83 73/289/73 
f 75/296/75 85/295/85 84/294/84 74/293/74 
f 76/300/76 86/299/86 85/298/85 75/297/75 
f 77/304/77 87/303/87 86/302/86 76/301/76 
f 78/308/78 88/307/88 87/306/87 77/305/77 
f 79/312/79 89/311/89 88/310/88 78/309/78 
f 80/316/80 90/315/90 89/314/89 79/313/79 
f 71/320/71 81/319/81 90/318/90 80/317/80 
f 91/323/91 4/322/4 1/321/1 
f 91/326/91 6/325/6 4/324/4 
f 91/329/91 8/328/8 6/327/6 
f 91/332/91 10/331/10 8/330/8 
f 91/335/91 12/334/12 10/333/10 
f 91/338/91 14/337/14 12/336/12 
f 91/341/91 16/340/16 14/339/14 
f 91/344/91 18/343/18 16/342/16 
f 91/347/91 20/346/20 18/345/18 
f 91/350/91 1/349/1 20/348/20 
f 82/353/82 92/352/92 81/351/81 
f 83/356/83 92/355/92 82/354/82 
f 84/359/84 92/358/92 83/357/83 
f 85/362/85 92/361/92 84/360/84 
f 86/365/86 92/364/92 85/363/85 
f 87/368/87 92/367/92 86/366/86 
f 88/371/88 92/370/92 87/369/87 
f 89/374/89 92/373/92 88/372/88 
f 90/377/90 92/376/92 89/375/89 
f 81/380/81 92/379/92 90/378/90
